<?xml version="1.0" encoding="utf-8"?>
<!-- Generator: Adobe Illustrator 24.2.0, SVG Export Plug-In . SVG Version: 6.00 Build 0)  -->
<svg version="1.1" id="Camada_1" xmlns="http://www.w3.org/2000/svg" xmlns:xlink="http://www.w3.org/1999/xlink" x="0px" y="0px"
	 viewBox="0 0 72.5 207" style="enable-background:new 0 0 72.5 207;" xml:space="preserve">
<style type="text/css">
	.st0{fill:#508778;}
	.st1{fill:#E7DFEF;}
	.font{font-size:2em; font-weight: 500;}
</style>
<g>
	<path class="st0" d="M63,9c0,17.5,0,36.5,0,54c-17.5,0-36.5,0-54,0C9,45.5,9,26.5,9,9H0c0,62.9,0,126.1,0,189h9v9
		c17.5,0,36.5,0,54,0v-9h9c0-62.9,0-126.1,0-189H63z"/>
	<path class="st1" d="M54,18c-14.4,0-30.6,0-45,0c0,14.4,0,30.6,0,45h9v9c11.3,0,24.7,0,36,0v-9h9c0-14.4,0-30.6,0-45H54z"/>
  		<text x="30" y="185" style="black" class="font">J</text>
</g>
</svg>
